# xmcd
#
# Track frame offsets:
#	150
#	20250
#	37956
#	67086
#	86897
#	108311
#	136445
#
# Disc length: 2147 seconds
#
# Revision: 1
# Processed by: cddbd v1.5.2PL0 Copyright (c) Steve Scherf et al.
# Submitted via: EasyCDDAExtractor 2010.6.0.0
#
DISCID=5a086107
DTITLE=Deak Bill Gyula - '60 Live CD 02
DYEAR=2009
DGENRE=Blues
TTITLE0=Oreg Billy Rock and Roll-bandaja
TTITLE1=A Nagy Generacio temetesere
TTITLE2=Kene egy uveg bor
TTITLE3=Hatvan csapas
TTITLE4=Nam vagyok elado
TTITLE5=Titkos lany
TTITLE6=Hosszu labu asszony
EXTD=
EXTT0=
EXTT1=
EXTT2=
EXTT3=
EXTT4=
EXTT5=
EXTT6=
PLAYORDER=
